HIERARCHY
ROOT mixamorig:Hips
{
	OFFSET -0.000008 104.274872 1.554316
	CHANNELS 6 Xposition Yposition Zposition Xrotation Yrotation Zrotation
	JOINT mixamorig:Spine
	{
		OFFSET -0.000005 10.181595 0.131519
		CHANNELS 6 Xposition Yposition Zposition Xrotation Yrotation Zrotation
		JOINT mixamorig:Spine1
		{
			OFFSET -0.000000 9.893959 -1.470707
			CHANNELS 6 Xposition Yposition Zposition Xrotation Yrotation Zrotation
			JOINT mixamorig:Spine2
			{
				OFFSET -0.000000 9.220757 -1.370641
				CHANNELS 6 Xposition Yposition Zposition Xrotation Yrotation Zrotation
				JOINT mixamorig:Neck
				{
					OFFSET 0.000001 16.740417 -2.049036
					CHANNELS 6 Xposition Yposition Zposition Xrotation Yrotation Zrotation
					JOINT mixamorig:Head
					{
						OFFSET 0.000000 9.617874 1.685006
						CHANNELS 6 Xposition Yposition Zposition Xrotation Yrotation Zrotation
						JOINT mixamorig:HeadTop_End
						{
							OFFSET 0.000002 22.037354 7.501101
							CHANNELS 6 Xposition Yposition Zposition Xrotation Yrotation Zrotation
							End Site
							{
								OFFSET 0.000168 2310.654297 -282.823242
							}
						}
					}
				}
				JOINT mixamorig:RightShoulder
				{
					OFFSET -4.569970 11.014908 -2.160885
					CHANNELS 6 Xposition Yposition Zposition Xrotation Yrotation Zrotation
					JOINT mixamorig:RightArm
					{
						OFFSET -10.592851 -0.524811 -2.232101
						CHANNELS 6 Xposition Yposition Zposition Xrotation Yrotation Zrotation
						JOINT mixamorig:RightForeArm
						{
							OFFSET -27.841511 0.000031 -0.000004
							CHANNELS 6 Xposition Yposition Zposition Xrotation Yrotation Zrotation
							JOINT mixamorig:RightHand
							{
								OFFSET -28.328831 -0.000015 0.000015
								CHANNELS 6 Xposition Yposition Zposition Xrotation Yrotation Zrotation
								JOINT mixamorig:RightHandThumb1
								{
									OFFSET -2.464806 -1.573990 2.681852
									CHANNELS 6 Xposition Yposition Zposition Xrotation Yrotation Zrotation
									JOINT mixamorig:RightHandThumb2
									{
										OFFSET -3.215179 -1.872803 1.924282
										CHANNELS 6 Xposition Yposition Zposition Xrotation Yrotation Zrotation
										JOINT mixamorig:RightHandThumb3
										{
											OFFSET -2.654831 -1.527969 1.512609
											CHANNELS 6 Xposition Yposition Zposition Xrotation Yrotation Zrotation
											JOINT mixamorig:RightHandThumb4
											{
												OFFSET -2.018814 -1.152008 1.108052
												CHANNELS 6 Xposition Yposition Zposition Xrotation Yrotation Zrotation
												End Site
												{
													OFFSET -188.809540 -114.533607 132.431396
												}
											}
										}
									}
								}
								JOINT mixamorig:RightHandIndex1
								{
									OFFSET -9.108284 -0.517868 2.259835
									CHANNELS 6 Xposition Yposition Zposition Xrotation Yrotation Zrotation
									JOINT mixamorig:RightHandIndex2
									{
										OFFSET -3.699989 0.000000 0.001215
										CHANNELS 6 Xposition Yposition Zposition Xrotation Yrotation Zrotation
										JOINT mixamorig:RightHandIndex3
										{
											OFFSET -2.850006 0.000031 -0.000522
											CHANNELS 6 Xposition Yposition Zposition Xrotation Yrotation Zrotation
											JOINT mixamorig:RightHandIndex4
											{
												OFFSET -2.772186 -0.000015 -0.000020
												CHANNELS 6 Xposition Yposition Zposition Xrotation Yrotation Zrotation
												End Site
												{
													OFFSET -277.218445 0.000000 -0.050231
												}
											}
										}
									}
								}
								JOINT mixamorig:RightHandMiddle1
								{
									OFFSET -9.532516 -0.000031 -0.000023
									CHANNELS 6 Xposition Yposition Zposition Xrotation Yrotation Zrotation
									JOINT mixamorig:RightHandMiddle2
									{
										OFFSET -3.700005 -0.000015 0.003713
										CHANNELS 6 Xposition Yposition Zposition Xrotation Yrotation Zrotation
										JOINT mixamorig:RightHandMiddle3
										{
											OFFSET -2.949974 0.000015 -0.002054
											CHANNELS 6 Xposition Yposition Zposition Xrotation Yrotation Zrotation
											JOINT mixamorig:RightHandMiddle4
											{
												OFFSET -2.946640 0.000000 -0.000156
												CHANNELS 6 Xposition Yposition Zposition Xrotation Yrotation Zrotation
												End Site
												{
													OFFSET -294.664337 0.000000 -0.113670
												}
											}
										}
									}
								}
								JOINT mixamorig:RightHandRing1
								{
									OFFSET -9.103600 -0.043076 -1.865134
									CHANNELS 6 Xposition Yposition Zposition Xrotation Yrotation Zrotation
									JOINT mixamorig:RightHandRing2
									{
										OFFSET -3.379288 0.000000 -0.001055
										CHANNELS 6 Xposition Yposition Zposition Xrotation Yrotation Zrotation
										JOINT mixamorig:RightHandRing3
										{
											OFFSET -2.889687 -0.000015 0.000379
											CHANNELS 6 Xposition Yposition Zposition Xrotation Yrotation Zrotation
											JOINT mixamorig:RightHandRing4
											{
												OFFSET -2.638809 -0.000015 0.000941
												CHANNELS 6 Xposition Yposition Zposition Xrotation Yrotation Zrotation
												End Site
												{
													OFFSET -263.880371 0.000000 0.516020
												}
											}
										}
									}
								}
								JOINT mixamorig:RightHandPinky1
								{
									OFFSET -8.076683 -0.486710 -3.806280
									CHANNELS 6 Xposition Yposition Zposition Xrotation Yrotation Zrotation
									JOINT mixamorig:RightHandPinky2
									{
										OFFSET -3.600014 -0.000015 -0.003747
										CHANNELS 6 Xposition Yposition Zposition Xrotation Yrotation Zrotation
										JOINT mixamorig:RightHandPinky3
										{
											OFFSET -2.099983 0.000000 -0.005739
											CHANNELS 6 Xposition Yposition Zposition Xrotation Yrotation Zrotation
											JOINT mixamorig:RightHandPinky4
											{
												OFFSET -2.115768 -0.000031 -0.003680
												CHANNELS 6 Xposition Yposition Zposition Xrotation Yrotation Zrotation
												End Site
												{
													OFFSET -211.577087 0.000000 -0.350686
												}
											}
										}
									}
								}
							}
						}
					}
				}
				JOINT mixamorig:LeftShoulder
				{
					OFFSET 4.570447 11.014725 -2.160855
					CHANNELS 6 Xposition Yposition Zposition Xrotation Yrotation Zrotation
					JOINT mixamorig:LeftArm
					{
						OFFSET 10.592371 -0.524597 -2.232119
						CHANNELS 6 Xposition Yposition Zposition Xrotation Yrotation Zrotation
						JOINT mixamorig:LeftForeArm
						{
							OFFSET 27.841532 -0.000031 0.000026
							CHANNELS 6 Xposition Yposition Zposition Xrotation Yrotation Zrotation
							JOINT mixamorig:LeftHand
							{
								OFFSET 28.328846 -0.000061 0.000022
								CHANNELS 6 Xposition Yposition Zposition Xrotation Yrotation Zrotation
								JOINT mixamorig:LeftHandThumb1
								{
									OFFSET 2.466141 -1.576172 2.681732
									CHANNELS 6 Xposition Yposition Zposition Xrotation Yrotation Zrotation
									JOINT mixamorig:LeftHandThumb2
									{
										OFFSET 3.217812 -1.872070 1.916482
										CHANNELS 6 Xposition Yposition Zposition Xrotation Yrotation Zrotation
										JOINT mixamorig:LeftHandThumb3
										{
											OFFSET 2.656029 -1.528778 1.514513
											CHANNELS 6 Xposition Yposition Zposition Xrotation Yrotation Zrotation
											JOINT mixamorig:LeftHandThumb4
											{
												OFFSET 2.020889 -1.154053 1.115139
												CHANNELS 6 Xposition Yposition Zposition Xrotation Yrotation Zrotation
												End Site
												{
													OFFSET 190.885437 -115.081749 130.048782
												}
											}
										}
									}
								}
								JOINT mixamorig:LeftHandIndex1
								{
									OFFSET 9.109314 -0.518021 2.259871
									CHANNELS 6 Xposition Yposition Zposition Xrotation Yrotation Zrotation
									JOINT mixamorig:LeftHandIndex2
									{
										OFFSET 3.699989 0.000000 -0.000322
										CHANNELS 6 Xposition Yposition Zposition Xrotation Yrotation Zrotation
										JOINT mixamorig:LeftHandIndex3
										{
											OFFSET 2.850006 0.000000 0.000352
											CHANNELS 6 Xposition Yposition Zposition Xrotation Yrotation Zrotation
											JOINT mixamorig:LeftHandIndex4
											{
												OFFSET 2.774864 -0.000031 -0.000027
												CHANNELS 6 Xposition Yposition Zposition Xrotation Yrotation Zrotation
												End Site
												{
													OFFSET 277.486267 0.000000 -0.009857
												}
											}
										}
									}
								}
								JOINT mixamorig:LeftHandMiddle1
								{
									OFFSET 9.533394 0.000061 0.000044
									CHANNELS 6 Xposition Yposition Zposition Xrotation Yrotation Zrotation
									JOINT mixamorig:LeftHandMiddle2
									{
										OFFSET 3.699989 -0.000015 -0.000231
										CHANNELS 6 Xposition Yposition Zposition Xrotation Yrotation Zrotation
										JOINT mixamorig:LeftHandMiddle3
										{
											OFFSET 2.949997 -0.000015 -0.000059
											CHANNELS 6 Xposition Yposition Zposition Xrotation Yrotation Zrotation
											JOINT mixamorig:LeftHandMiddle4
											{
												OFFSET 2.952896 0.000031 0.000063
												CHANNELS 6 Xposition Yposition Zposition Xrotation Yrotation Zrotation
												End Site
												{
													OFFSET 295.289337 0.000000 0.022810
												}
											}
										}
									}
								}
								JOINT mixamorig:LeftHandRing1
								{
									OFFSET 9.104523 -0.042999 -1.865074
									CHANNELS 6 Xposition Yposition Zposition Xrotation Yrotation Zrotation
									JOINT mixamorig:LeftHandRing2
									{
										OFFSET 3.150009 -0.000031 0.000043
										CHANNELS 6 Xposition Yposition Zposition Xrotation Yrotation Zrotation
										JOINT mixamorig:LeftHandRing3
										{
											OFFSET 2.949982 -0.000015 0.000040
											CHANNELS 6 Xposition Yposition Zposition Xrotation Yrotation Zrotation
											JOINT mixamorig:LeftHandRing4
											{
												OFFSET 2.644348 0.000000 0.000057
												CHANNELS 6 Xposition Yposition Zposition Xrotation Yrotation Zrotation
												End Site
												{
													OFFSET 264.434631 0.000000 0.012105
												}
											}
										}
									}
								}
								JOINT mixamorig:LeftHandPinky1
								{
									OFFSET 8.077789 -0.486847 -3.806259
									CHANNELS 6 Xposition Yposition Zposition Xrotation Yrotation Zrotation
									JOINT mixamorig:LeftHandPinky2
									{
										OFFSET 3.599953 0.000031 0.014727
										CHANNELS 6 Xposition Yposition Zposition Xrotation Yrotation Zrotation
										JOINT mixamorig:LeftHandPinky3
										{
											OFFSET 2.100021 0.000015 0.007705
											CHANNELS 6 Xposition Yposition Zposition Xrotation Yrotation Zrotation
											JOINT mixamorig:LeftHandPinky4
											{
												OFFSET 2.125504 0.000031 0.007517
												CHANNELS 6 Xposition Yposition Zposition Xrotation Yrotation Zrotation
												End Site
												{
													OFFSET 212.550781 0.000000 0.625752
												}
											}
										}
									}
								}
							}
						}
					}
				}
			}
		}
	}
	JOINT mixamorig:RightUpLeg
	{
		OFFSET -8.207787 -6.751648 -1.599560
		CHANNELS 6 Xposition Yposition Zposition Xrotation Yrotation Zrotation
		JOINT mixamorig:RightLeg
		{
			OFFSET -0.000002 -44.370117 0.345942
			CHANNELS 6 Xposition Yposition Zposition Xrotation Yrotation Zrotation
			JOINT mixamorig:RightFoot
			{
				OFFSET 0.000003 -44.423679 -3.043532
				CHANNELS 6 Xposition Yposition Zposition Xrotation Yrotation Zrotation
				JOINT mixamorig:RightToeBase
				{
					OFFSET -0.000002 -8.728671 10.710558
					CHANNELS 6 Xposition Yposition Zposition Xrotation Yrotation Zrotation
					JOINT mixamorig:RightToe_End
					{
						OFFSET -0.000001 -0.000679 9.278119
						CHANNELS 6 Xposition Yposition Zposition Xrotation Yrotation Zrotation
						End Site
						{
							OFFSET 0.000000 -0.067690 927.812134
						}
					}
				}
			}
		}
	}
	JOINT mixamorig:LeftUpLeg
	{
		OFFSET 8.207793 -6.751686 -1.599556
		CHANNELS 6 Xposition Yposition Zposition Xrotation Yrotation Zrotation
		JOINT mixamorig:LeftLeg
		{
			OFFSET -0.000004 -44.370014 0.346954
			CHANNELS 6 Xposition Yposition Zposition Xrotation Yrotation Zrotation
			JOINT mixamorig:LeftFoot
			{
				OFFSET -0.000001 -44.423672 -3.044401
				CHANNELS 6 Xposition Yposition Zposition Xrotation Yrotation Zrotation
				JOINT mixamorig:LeftToeBase
				{
					OFFSET -0.000002 -8.728669 10.710558
					CHANNELS 6 Xposition Yposition Zposition Xrotation Yrotation Zrotation
					JOINT mixamorig:LeftToe_End
					{
						OFFSET -0.000003 -0.000679 9.278133
						CHANNELS 6 Xposition Yposition Zposition Xrotation Yrotation Zrotation
						End Site
						{
							OFFSET 0.000000 -0.068021 927.813477
						}
					}
				}
			}
		}
	}
}
MOTION
Frames: 3
Frame Time: 0.033333
0.000006 104.270477 1.554256 0.000010 0.000003 -0.000113 -0.000005 10.181587 0.131522 0.000001 -0.000003 0.000084 -0.000000 9.893967 -1.470711 0.000001 0.000000 -0.000000 -0.000000 9.220802 -1.370642 0.000000 -0.000000 -0.000000 0.000001 16.740433 -2.049030 0.000000 -0.000000 -0.000000 0.000000 9.617859 1.685014 0.000000 0.000000 0.000000 0.000002 22.037384 7.501101 0.000000 -0.000000 0.000000 -4.569968 11.014880 -2.160881 0.000008 0.000001 -0.000038 -10.592815 -0.524821 -2.231776 44.408486 62.106111 -27.616183 -27.841499 -0.000004 0.000586 36.878934 102.042890 -44.788788 -28.328829 0.000020 0.000029 -0.000323 -0.000045 0.000007 -2.464864 -1.574134 2.682153 95.243908 -192.952748 161.355774 -3.215155 -1.873030 1.924614 256.389674 -2.731930 -29.968100 -2.654802 -1.528255 1.512877 273.364962 -6.883469 -26.027406 -2.018839 -1.152017 1.108066 -0.000003 -0.000003 0.000007 -9.108365 -0.517836 2.260354 146.333784 56.199589 -121.005626 -3.700078 0.000032 0.001717 -55.434949 107.080878 70.861901 -2.850151 0.000093 -0.000117 -83.372882 111.655186 105.361719 -2.772164 0.000003 -0.000018 -0.000000 0.000002 0.000000 -9.532612 0.000032 0.000463 134.048746 48.826410 -94.164526 -3.700086 0.000070 0.004205 -45.581746 123.279191 75.952066 -2.950153 0.000110 -0.001658 -66.913895 128.903934 108.249360 -2.946630 -0.000015 -0.000155 -0.000001 0.000002 -0.000001 -9.103706 -0.042975 -1.864637 134.456468 53.008354 -99.742967 -3.379369 0.000170 -0.000590 132.013951 20.084351 -43.434645 -2.889810 0.000271 0.000776 475.118450 17.766176 -27.709145 -2.638828 -0.000002 0.000953 0.000003 -0.000001 -0.000002 -8.076740 -0.486607 -3.805762 141.367048 45.344335 -99.695046 -3.600040 0.000274 -0.003313 311.312728 -185.147796 169.413758 -2.100036 0.000292 -0.005349 120.727637 7.097706 -12.045837 -2.115764 -0.000053 -0.003677 -0.000001 0.000003 -0.000002 4.570446 11.014691 -2.160851 -0.000018 0.000010 -0.000021 10.592491 -0.524559 -2.232368 48.232918 -61.023854 29.558306 27.841755 -0.000023 -0.000135 52.029212 -97.559758 58.244240 28.328842 -0.000044 0.000016 0.000023 -0.000090 -0.000001 2.466238 -1.575987 2.681868 43.271994 166.329436 -128.167776 3.217855 -1.871940 1.916573 272.186863 22.237754 31.132159 2.656065 -1.528745 1.514620 287.904713 16.977526 23.136622 2.020906 -1.154067 1.115152 0.000003 0.000001 0.000002 9.109362 -0.518001 2.259821 41.330943 -37.192627 14.458189 3.700084 0.000042 -0.000385 85.684662 -42.780128 39.946146 2.850105 0.000111 0.000270 93.144314 -37.931124 39.905442 2.774879 -0.000030 -0.000028 -0.000001 -0.000000 0.000000 9.533450 0.000083 -0.000003 42.983565 -34.366667 13.879168 3.700067 0.000058 -0.000310 68.417499 -36.231360 25.075352 2.950081 0.000059 -0.000129 61.061010 -33.436508 20.092813 2.952866 -0.000046 0.000064 -0.000001 0.000001 -0.000000 9.104563 -0.043014 -1.865078 29.375749 -45.859738 12.655749 3.150034 0.000086 -0.000062 56.981280 -16.963367 9.255542 2.950006 0.000096 -0.000090 412.806935 -9.538852 4.744993 2.644319 0.000026 0.000051 -0.000003 0.000002 0.000002 8.077810 -0.486848 -3.806265 24.005180 -36.956142 8.378712 3.599971 0.000090 0.014601 224.186561 186.229452 182.728406 2.100005 0.000070 0.007583 218.910227 179.006117 179.788228 2.125498 0.000000 0.007499 -0.000001 -0.000000 -0.000001 -8.207786 -6.751667 -1.599560 -0.077001 -0.000003 0.000080 -0.000002 -44.370110 0.345938 0.153719 -0.000000 -0.000000 0.000000 -44.423679 -3.043532 -0.076700 0.000000 -0.000002 -0.000006 -8.728667 10.710559 -0.000009 -0.000000 -0.000000 -0.000001 -0.000679 9.278123 0.000000 -0.000000 -0.000000 8.207792 -6.751710 -1.599556 -0.074518 -0.000003 0.000081 -0.000002 -44.370014 0.346960 0.148822 0.000002 0.000000 -0.000001 -44.423664 -3.044403 -0.074314 0.000000 -0.000002 -0.000004 -8.728671 10.710558 0.000007 -0.000000 -0.000000 0.000000 -0.000680 9.278137 -0.000000 0.000000 -0.000001 
0.000006 104.270477 1.554256 0.000010 0.000003 -0.000113 -0.000005 10.181587 0.131522 0.000001 -0.000003 0.000084 -0.000000 9.893967 -1.470711 0.000001 0.000000 -0.000000 -0.000000 9.220802 -1.370642 0.000000 -0.000000 -0.000000 0.000001 16.740433 -2.049030 0.000000 -0.000000 -0.000000 0.000000 9.617859 1.685014 0.000000 0.000000 0.000000 0.000002 22.037384 7.501101 0.000000 -0.000000 0.000000 -4.569968 11.014880 -2.160881 0.000008 0.000001 -0.000038 -10.592809 -0.524837 -2.231768 59.725551 62.241239 -38.236536 -27.841526 -0.000021 0.000553 63.952461 99.341645 -72.660092 -28.328840 0.000021 0.000031 -0.000323 -0.000045 0.000006 -2.464643 -1.574222 2.682171 75.231733 -149.545380 137.577113 -3.215048 -1.873039 1.924493 276.634956 -22.934039 -29.232376 -2.654771 -1.528270 1.512834 279.596717 -13.412373 -25.708646 -2.018811 -1.151986 1.108056 -0.000003 -0.000003 0.000002 -9.108468 -0.517759 2.260133 56.550896 57.620808 -32.997703 -3.700142 0.000193 0.001515 -98.091980 144.449239 148.928054 -2.850124 0.000294 -0.000317 -107.837055 157.219767 163.297556 -2.772166 0.000003 -0.000023 0.000002 -0.000004 0.000001 -9.532676 0.000092 0.000244 66.905712 47.727610 -32.709185 -3.700134 0.000238 0.004028 -87.853793 145.797928 144.686725 -2.950105 0.000290 -0.001816 -91.581478 157.781618 158.379779 -2.946624 0.000015 -0.000155 -0.000005 0.000003 -0.000000 -9.103764 -0.042938 -1.864868 53.834523 50.644435 -26.983327 -3.379382 0.000261 -0.000725 104.613650 21.787274 -27.996927 -2.889740 0.000363 0.000670 462.356815 3.103976 -3.910620 -2.638794 -0.000001 0.000937 0.000000 -0.000000 -0.000000 -8.076764 -0.486675 -3.806191 176.240696 155.762956 -179.170683 -3.600005 -0.000020 -0.003745 184.810671 -184.597310 179.832515 -2.099977 0.000012 -0.005754 2.964694 -3.145066 0.081131 -2.115767 -0.000041 -0.003676 0.000001 -0.000000 -0.000003 4.570446 11.014691 -2.160851 -0.000018 0.000010 -0.000021 10.592503 -0.524541 -2.232387 59.655890 -60.269480 36.817670 27.841753 -0.000043 -0.000118 85.411919 -97.452504 92.879453 28.328835 -0.000015 0.000021 0.000022 -0.000092 -0.000001 2.466197 -1.576104 2.681898 58.288752 144.811103 -124.130629 3.217844 -1.872002 1.916559 279.495330 33.647803 30.661197 2.656052 -1.528775 1.514632 295.591763 21.713108 20.710652 2.020887 -1.154070 1.115147 0.000003 0.000004 0.000004 9.109367 -0.517895 2.259748 67.922707 -18.119054 12.250650 3.700049 0.000188 -0.000466 90.714297 -16.152795 16.370382 2.850078 0.000238 0.000217 102.513162 -14.378153 17.865792 2.774876 -0.000047 -0.000030 0.000002 0.000000 -0.000002 9.533452 0.000220 -0.000085 76.491664 -14.194123 11.202825 3.700051 0.000230 -0.000357 106.561244 -11.199664 14.973481 2.950077 0.000221 -0.000193 104.734414 -10.621386 13.752778 2.952873 -0.000015 0.000059 -0.000003 0.000007 0.000003 9.104587 -0.042906 -1.865201 72.793096 -27.234637 20.251501 3.150056 0.000292 -0.000056 116.583980 -11.128805 17.925616 2.949958 0.000310 -0.000103 474.547227 -0.058004 0.092553 2.644321 0.000029 0.000066 0.000000 -0.000003 0.000002 8.077806 -0.486883 -3.806217 6.577946 -38.396216 2.479849 3.599971 0.000018 0.014705 194.640010 198.640903 182.538404 2.100006 0.000022 0.007663 195.417832 181.626382 180.280890 2.125504 0.000001 0.007517 -0.000000 -0.000003 0.000000 -8.207786 -6.751667 -1.599560 -0.077001 -0.000003 0.000080 -0.000002 -44.370110 0.345938 0.153719 -0.000000 -0.000000 0.000000 -44.423679 -3.043532 -0.076700 0.000000 -0.000002 -0.000006 -8.728667 10.710559 -0.000009 -0.000000 -0.000000 -0.000001 -0.000679 9.278123 0.000000 -0.000000 -0.000000 8.207792 -6.751710 -1.599556 -0.074518 -0.000003 0.000081 -0.000002 -44.370014 0.346960 0.148822 0.000002 0.000000 -0.000001 -44.423664 -3.044403 -0.074314 0.000000 -0.000002 -0.000004 -8.728671 10.710558 0.000007 -0.000000 -0.000000 0.000000 -0.000680 9.278137 -0.000000 0.000000 -0.000001 
0.000006 104.270477 1.554256 0.000010 0.000003 -0.000113 -0.000005 10.181587 0.131522 0.000001 -0.000003 0.000084 -0.000000 9.893967 -1.470711 0.000001 0.000000 -0.000000 -0.000000 9.220802 -1.370642 0.000000 -0.000000 -0.000000 0.000001 16.740433 -2.049030 0.000000 -0.000000 -0.000000 0.000000 9.617859 1.685014 0.000000 0.000000 0.000000 0.000002 22.037384 7.501101 0.000000 -0.000000 0.000000 -4.569968 11.014880 -2.160881 0.000008 0.000001 -0.000038 -10.592796 -0.524846 -2.231757 70.071819 62.695317 -46.254697 -27.841534 0.000010 0.000542 85.264632 99.227035 -94.521683 -28.328835 0.000021 0.000028 -0.000318 -0.000044 0.000009 -2.464710 -1.574209 2.682215 67.882327 -161.683254 139.214418 -3.215091 -1.873031 1.924457 286.471740 -17.165199 -23.439152 -2.654797 -1.528214 1.512767 296.055970 -8.427580 -18.593114 -2.018826 -1.152018 1.108058 -0.000001 0.000002 0.000002 -9.108445 -0.517648 2.260087 77.232323 34.002447 -27.491920 -3.700094 0.000244 0.001628 -68.378322 153.690335 142.066910 -2.850123 0.000313 -0.000116 -56.078753 165.049841 152.322070 -2.772172 0.000001 -0.000010 -0.000000 -0.000002 0.000001 -9.532637 0.000223 0.000289 95.970285 30.416837 -33.756246 -3.700080 0.000272 0.004102 -57.856620 163.815421 151.323306 -2.950066 0.000323 -0.001638 -52.618807 169.307781 158.579835 -2.946640 -0.000000 -0.000155 0.000004 -0.000001 0.000003 -9.103773 -0.042911 -1.864834 70.087283 48.617980 -35.116523 -3.379334 0.000284 -0.000670 122.392332 11.482436 -20.756889 -2.889694 0.000361 0.000772 490.876297 -0.090326 0.108313 -2.638808 -0.000000 0.000933 -0.000004 0.000002 -0.000001 -8.076784 -0.486677 -3.806172 176.738262 151.841252 -179.155042 -3.600040 0.000006 -0.003716 191.315661 -191.202458 178.948402 -2.100004 0.000065 -0.005735 14.167090 3.790766 -0.439576 -2.115765 -0.000041 -0.003680 0.000001 -0.000003 -0.000004 4.570446 11.014691 -2.160851 -0.000018 0.000010 -0.000021 10.592519 -0.524536 -2.232394 67.280027 -60.657817 42.540266 27.841747 -0.000058 -0.000139 101.881158 -97.508108 109.131287 28.328821 -0.000017 0.000028 0.000019 -0.000087 0.000001 2.466220 -1.576079 2.681905 71.487082 151.586104 -136.184355 3.217845 -1.871945 1.916544 287.896981 21.714590 23.738795 2.656051 -1.528751 1.514627 301.741420 9.488360 16.758310 2.020887 -1.154065 1.115147 0.000002 0.000006 0.000004 9.109376 -0.517876 2.259730 71.729506 -15.537823 11.256779 3.700049 0.000200 -0.000475 94.864839 -13.902112 15.140455 2.850058 0.000256 0.000201 106.224243 -8.691834 11.562715 2.774879 -0.000019 -0.000041 0.000001 -0.000002 0.000000 9.533453 0.000219 -0.000103 76.538267 -13.889704 10.970647 3.700063 0.000251 -0.000352 112.008136 -11.245298 16.606852 2.950077 0.000275 -0.000179 116.072248 -9.205026 14.706939 2.952873 -0.000017 0.000067 -0.000000 -0.000001 0.000000 9.104599 -0.042897 -1.865201 72.036100 -25.798731 18.907897 3.150057 0.000318 -0.000060 122.364751 -8.210395 14.868601 2.949963 0.000347 -0.000086 486.169313 4.852902 -9.540255 2.644331 0.000030 0.000041 -0.000003 -0.000002 0.000001 8.077805 -0.486871 -3.806221 -0.733801 -28.970230 -0.071423 3.599960 0.000020 0.014727 185.263076 187.941316 180.414133 2.099996 0.000010 0.007674 186.373869 176.105909 179.791821 2.125502 -0.000001 0.007522 0.000000 -0.000002 0.000001 -8.207786 -6.751667 -1.599560 -0.077001 -0.000003 0.000080 -0.000002 -44.370110 0.345938 0.153719 -0.000000 -0.000000 0.000000 -44.423679 -3.043532 -0.076700 0.000000 -0.000002 -0.000006 -8.728667 10.710559 -0.000009 -0.000000 -0.000000 -0.000001 -0.000679 9.278123 0.000000 -0.000000 -0.000000 8.207792 -6.751710 -1.599556 -0.074518 -0.000003 0.000081 -0.000002 -44.370014 0.346960 0.148822 0.000002 0.000000 -0.000001 -44.423664 -3.044403 -0.074314 0.000000 -0.000002 -0.000004 -8.728671 10.710558 0.000007 -0.000000 -0.000000 0.000000 -0.000680 9.278137 -0.000000 0.000000 -0.000001 
